<svg xmlns="http://www.w3.org/2000/svg" xmlns:xlink="http://www.w3.org/1999/xlink" width="289" height="79" viewBox="0 0 289 79">
    <defs>
        <filter id="a" width="121.9%" height="119.7%" x="-10.9%" y="-7%" filterUnits="objectBoundingBox">
            <feOffset dy="2" in="SourceAlpha" result="shadowOffsetOuter1"/>
            <feGaussianBlur in="shadowOffsetOuter1" result="shadowBlurOuter1" stdDeviation="2"/>
            <feColorMatrix in="shadowBlurOuter1" result="shadowMatrixOuter1" values="0 0 0 0 0 0 0 0 0 0 0 0 0 0 0 0 0 0 0.5 0"/>
            <feMerge>
                <feMergeNode in="shadowMatrixOuter1"/>
                <feMergeNode in="SourceGraphic"/>
            </feMerge>
        </filter>
        <path id="b" d="M0 71h64V0H0z"/>
    </defs>
    <g fill="none" fill-rule="evenodd">
        <text fill="#FFF" font-family="PTSerif-Regular, PT Serif" font-size="28" transform="translate(4 2)">
            <tspan x="82" y="48">Global Spotlight</tspan>
        </text>
        <g filter="url(#a)" transform="translate(4 2)">
            <mask id="c" fill="#fff">
                <use xlink:href="#b"/>
            </mask>
            <use fill="#39BDDC" xlink:href="#b"/>
            <path stroke="#FFF" stroke-width="7.68" d="M35.037 49.646a15.274 15.274 0 0 0 12.419 6.332c8.416 0 15.238-6.743 15.238-15.061s-6.822-15.06-15.238-15.06-15.238 6.742-15.238 15.06" mask="url(#c)" transform="rotate(-5 47.456 40.917)"/>
            <path stroke="#FFF" stroke-width="7.68" d="M49.82 7.088c2.891 6.4-.013 13.904-6.488 16.763-6.475 2.858-14.068-.012-16.96-6.412-2.893-6.399.011-13.904 6.486-16.763 6.475-2.858 14.069.012 16.961 6.412z" mask="url(#c)"/>
            <path fill="#FFF" d="M43.942 1.95l1.184 2.704c4.253-1.385 3.254.808 6.317 1.8l17.315-8.21-2.343-5.56-22.473 9.267z" mask="url(#c)"/>
        </g>
    </g>
</svg>
