<svg xmlns="http://www.w3.org/2000/svg" width="16" height="16" viewBox="0 0 16 16">
    <path fill="#FFF" fill-rule="evenodd" d="M11.404 11.404c-.955.956-2.096 1.433-3.423 1.433s-2.462-.477-3.404-1.433C3.634 10.45 3.163 9.314 3.163 8c0-.223.025-.533.074-.93H0v6.4c0 .694.242 1.29.725 1.786A2.378 2.378 0 0 0 2.492 16h11.015c.694 0 1.283-.249 1.767-.744A2.467 2.467 0 0 0 16 13.469v-6.4h-3.275c.075.298.112.608.112.931 0 1.315-.478 2.45-1.433 3.404zM2.492 0C1.798 0 1.21.242.725.725A2.405 2.405 0 0 0 0 2.492V5.21h4.056C4.973 3.844 6.288 3.163 8 3.163c1.661 0 2.977.681 3.944 2.046H16V2.492c0-.694-.242-1.283-.726-1.767A2.405 2.405 0 0 0 13.507 0H2.492zm11.759 3.535h-1.34a.403.403 0 0 1-.315-.15.452.452 0 0 1-.131-.297v-1.34c0-.297.148-.446.446-.446h1.34c.297 0 .447.149.447.446v1.34c0 .298-.15.447-.447.447zM10.102 5.88A2.897 2.897 0 0 0 8 5.023c-.819 0-1.52.285-2.102.856-.583.57-.875 1.271-.875 2.102s.292 1.538.875 2.121A2.865 2.865 0 0 0 8 10.977c.819 0 1.52-.292 2.102-.875A2.866 2.866 0 0 0 10.977 8c0-.844-.292-1.55-.875-2.12z"/>
</svg>
