<svg width="18" height="18" viewBox="0 0 18 18" xmlns="http://www.w3.org/2000/svg"><title>18B46E63-8873-42BF-B40C-3ECBC7542A3A</title><path d="M12.83 12.83c-1.075 1.075-2.358 1.612-3.851 1.612-1.493 0-2.77-.537-3.83-1.612C4.088 11.756 3.558 10.479 3.558 9c0-.251.028-.6.084-1.047H0v7.2c0 .782.272 1.451.816 2.01A2.676 2.676 0 0 0 2.804 18h12.391c.781 0 1.444-.28 1.988-.837a2.775 2.775 0 0 0 .817-2.01v-7.2h-3.684c.084.335.126.684.126 1.047 0 1.479-.538 2.756-1.612 3.83zM2.804 0C2.023 0 1.36.272.816.816A2.706 2.706 0 0 0 0 2.804V5.86h4.563C5.595 4.325 7.074 3.558 9 3.558c1.869 0 3.349.767 4.437 2.302H18V2.804c0-.781-.272-1.444-.817-1.988A2.706 2.706 0 0 0 15.195 0H2.804zm13.228 3.977h-1.507a.454.454 0 0 1-.355-.168.509.509 0 0 1-.147-.335V1.967c0-.335.167-.502.502-.502h1.507c.335 0 .503.167.503.502v1.507c0 .335-.168.503-.503.503zm-4.667 2.637A3.26 3.26 0 0 0 9 5.651c-.921 0-1.71.321-2.365.963-.656.642-.984 1.43-.984 2.365 0 .935.328 1.73.984 2.386A3.223 3.223 0 0 0 9 12.349c.921 0 1.709-.328 2.365-.984A3.224 3.224 0 0 0 12.349 9c0-.949-.328-1.744-.984-2.386z" fill="#000" fill-rule="evenodd"/></svg>