<?xml version="1.0" encoding="UTF-8"?>
<svg width="19px" height="18px" viewBox="0 0 19 18" version="1.1" xmlns="http://www.w3.org/2000/svg" xmlns:xlink="http://www.w3.org/1999/xlink">
    <!-- Generator: Sketch 42 (36781) - http://www.bohemiancoding.com/sketch -->
    <title>Fill 1</title>
    <desc>Created with Sketch.</desc>
    <defs></defs>
    <g id="Desktop" stroke="none" stroke-width="1" fill="none" fill-rule="evenodd">
        <g id="Desktop---Homepage-Copy-3" transform="translate(-301.000000, -417.000000)" fill="#000000">
            <path d="M301.651843,420.581918 C302.061951,420.977113 302.604411,421.175642 303.278293,421.175642 L303.29973,421.175642 C303.973612,421.175642 304.523529,420.977113 304.94855,420.581918 C305.373571,420.186723 305.582353,419.68807 305.574896,419.087821 C305.56744,418.48664 305.358658,417.988919 304.94855,417.592792 C304.538442,417.197597 303.995981,417 303.3221,417 C302.648218,417 302.098301,417.197597 301.674213,417.592792 C301.24826,417.988919 301.036682,418.48664 301.036682,419.087821 C301.036682,419.68807 301.241735,420.186723 301.651843,420.581918 L301.651843,420.581918 Z M301.278086,435 L305.322307,435 L305.322307,422.845899 L301.278086,422.845899 L301.278086,435 Z M311.58577,434.999068 L311.58577,428.208057 C311.58577,427.797949 311.629577,427.468931 311.717191,427.219138 C311.908264,426.794118 312.172038,426.44273 312.508513,426.164043 C312.845919,425.886288 313.27094,425.746479 313.783575,425.746479 C314.487282,425.746479 315.006441,425.988815 315.343848,426.471624 C315.681255,426.955365 315.849026,427.629246 315.849026,428.4942 L315.849026,434.999068 L319.87181,434.999068 L319.87181,428.032829 C319.87181,426.23022 319.445857,424.867543 318.596748,423.944801 C317.746706,423.021127 316.626367,422.559756 315.233865,422.559756 C314.736143,422.574669 314.267315,422.640845 313.827382,422.757353 C313.38838,422.874793 313.028604,423.050953 312.750849,423.284901 C312.472162,423.51978 312.244739,423.732291 312.069511,423.922432 C311.893351,424.113505 311.724648,424.339996 311.563401,424.60377 L311.58577,424.60377 L311.58577,422.845899 L307.541549,422.845899 L307.563919,423.438691 L307.563919,427.065348 C307.563919,429.086993 307.556462,431.732187 307.541549,434.999068 L311.58577,434.999068 Z" id="Fill-1"></path>
        </g>
    </g>
</svg>