<svg xmlns="http://www.w3.org/2000/svg" xmlns:xlink="http://www.w3.org/1999/xlink" width="248" height="46" viewBox="0 0 248 46">
    <defs>
        <path id="a" d="M0 46h42V0H0z"/>
    </defs>
    <g fill="none" fill-rule="evenodd">
        <path fill="#FFF" d="M74.834 32.752c-.33.19-.715.377-1.157.559a15.38 15.38 0 0 1-2.886.858 7.36 7.36 0 0 1-1.391.143c-1.387 0-2.635-.186-3.744-.559-1.11-.373-2.054-.945-2.834-1.716-.78-.771-1.382-1.746-1.807-2.925-.425-1.179-.637-2.583-.637-4.212 0-1.699.247-3.146.741-4.342.494-1.196 1.153-2.171 1.976-2.925a7.538 7.538 0 0 1 2.808-1.638 10.405 10.405 0 0 1 3.211-.507c1.144 0 2.11.074 2.899.221.789.147 1.478.368 2.067.663 0 .26-.009.58-.026.962a31.823 31.823 0 0 1-.208 2.431c-.052.407-.104.767-.156 1.079h-.676L71.662 17.1c-.19-.104-.511-.173-.962-.208-.45-.035-.893-.052-1.326-.052-.867 0-1.69.16-2.47.481-.78.32-1.46.815-2.041 1.482-.58.667-1.044 1.508-1.391 2.522-.347 1.014-.52 2.206-.52 3.575 0 1.23.169 2.34.507 3.328.338.988.806 1.833 1.404 2.535a6.262 6.262 0 0 0 2.106 1.625 6.032 6.032 0 0 0 2.613.572c.347 0 .685-.035 1.014-.104.33-.07.633-.152.91-.247s.507-.195.689-.299c.182-.104.308-.19.377-.26v-5.252a6.148 6.148 0 0 1-1.287-.234c-.407-.121-.81-.251-1.209-.39v-.754h6.37v.754a3.477 3.477 0 0 1-.624.338c-.243.104-.572.2-.988.286v5.954zM83.726 34h-5.772v-.65a8.55 8.55 0 0 1 1.716-.624V16.268l-1.976-.208v-.676c.45-.208 1.014-.39 1.69-.546a30.522 30.522 0 0 1 1.976-.39h.65v18.278a8.55 8.55 0 0 1 1.716.624V34zm2.054-6.5c0-1.092.143-2.058.429-2.899.286-.84.698-1.551 1.235-2.132a5.295 5.295 0 0 1 1.937-1.326c.754-.303 1.59-.455 2.509-.455 1.075 0 2.002.165 2.782.494.78.33 1.417.793 1.911 1.391s.858 1.313 1.092 2.145c.234.832.351 1.76.351 2.782 0 2.184-.555 3.865-1.664 5.044-1.11 1.179-2.6 1.768-4.472 1.768-1.04 0-1.941-.16-2.704-.481a4.931 4.931 0 0 1-1.898-1.378c-.503-.598-.88-1.317-1.131-2.158-.251-.84-.377-1.772-.377-2.795zm2.496 0c0 .78.074 1.517.221 2.21.147.693.381 1.296.702 1.807.32.511.741.914 1.261 1.209.52.295 1.144.442 1.872.442.936 0 1.703-.46 2.301-1.378.598-.919.897-2.349.897-4.29 0-.797-.074-1.538-.221-2.223-.147-.685-.377-1.283-.689-1.794a3.549 3.549 0 0 0-1.196-1.209c-.485-.295-1.066-.442-1.742-.442-1.023 0-1.846.46-2.47 1.378-.624.919-.936 2.349-.936 4.29zm12.818-11.232l-1.976-.208v-.676a9.86 9.86 0 0 1 1.807-.546l1.859-.39h.65v9.126h.052c.295-.884.793-1.586 1.495-2.106a3.82 3.82 0 0 1 2.327-.78c1.577 0 2.786.537 3.627 1.612.84 1.075 1.261 2.73 1.261 4.966 0 2.288-.576 4.021-1.729 5.2-1.153 1.179-2.812 1.768-4.979 1.768-.433 0-.867-.03-1.3-.091a16.92 16.92 0 0 1-1.248-.221 7.646 7.646 0 0 1-1.079-.312 4.275 4.275 0 0 1-.767-.364V16.268zm5.512 6.032c-.832 0-1.508.282-2.028.845s-.901 1.278-1.144 2.145v7.254c.312.173.693.308 1.144.403.45.095.927.143 1.43.143 1.144 0 2.045-.498 2.704-1.495.659-.997.988-2.44.988-4.329 0-.676-.056-1.317-.169-1.924a5.18 5.18 0 0 0-.546-1.586 3.02 3.02 0 0 0-.962-1.066c-.39-.26-.862-.39-1.417-.39zm17.316 8.294c0 .381.009.71.026.988.017.277.035.572.052.884l1.794.26v.546a9.626 9.626 0 0 1-1.443.598c-.529.173-1.036.303-1.521.39h-.65a3.996 3.996 0 0 1-.312-1.313 37.452 37.452 0 0 1-.078-1.573h-.13c-.07.347-.204.698-.403 1.053-.2.355-.46.672-.78.949a3.96 3.96 0 0 1-1.131.676c-.433.173-.927.26-1.482.26-1.057 0-1.92-.32-2.587-.962-.667-.641-1.001-1.482-1.001-2.522 0-.797.16-1.452.481-1.963.32-.511.793-.914 1.417-1.209.624-.295 1.395-.507 2.314-.637s1.985-.23 3.198-.299c.07-.745.091-1.417.065-2.015-.026-.598-.121-1.11-.286-1.534-.165-.425-.407-.754-.728-.988-.32-.234-.741-.351-1.261-.351a9.68 9.68 0 0 0-.819.039c-.303.026-.602.1-.897.221l-1.222 3.12h-.676a18.302 18.302 0 0 1-.455-1.612 9.992 9.992 0 0 1-.247-1.638 8.788 8.788 0 0 1 2.197-.936c.806-.225 1.703-.338 2.691-.338.884 0 1.59.126 2.119.377.529.251.932.576 1.209.975s.46.84.546 1.326c.087.485.13.97.13 1.456 0 1.04-.022 2.041-.065 3.003a61.611 61.611 0 0 0-.065 2.769zm-5.018 2.106a2.42 2.42 0 0 0 1.144-.26c.33-.173.607-.381.832-.624.225-.243.407-.49.546-.741.139-.251.234-.464.286-.637v-2.73c-1.005 0-1.829.052-2.47.156-.641.104-1.144.269-1.508.494-.364.225-.615.507-.754.845a3.027 3.027 0 0 0-.208 1.157c0 .745.19 1.322.572 1.729.381.407.901.611 1.56.611zM133.23 34h-5.772v-.65a8.55 8.55 0 0 1 1.716-.624V16.268l-1.976-.208v-.676c.45-.208 1.014-.39 1.69-.546a30.522 30.522 0 0 1 1.976-.39h.65v18.278a8.55 8.55 0 0 1 1.716.624V34zm11.206-1.794c.208.208.477.386.806.533.33.147.823.221 1.482.221.555 0 1.075-.074 1.56-.221a3.701 3.701 0 0 0 1.261-.65c.355-.286.637-.633.845-1.04.208-.407.312-.871.312-1.391 0-.693-.212-1.274-.637-1.742a6.485 6.485 0 0 0-1.586-1.248 26.88 26.88 0 0 0-2.067-1.066 11.44 11.44 0 0 1-2.067-1.235 6.503 6.503 0 0 1-1.586-1.716c-.425-.667-.637-1.504-.637-2.509 0-.728.13-1.378.39-1.95a4.067 4.067 0 0 1 1.105-1.456 5.111 5.111 0 0 1 1.703-.923c.659-.217 1.395-.325 2.21-.325 1.057 0 2.024.082 2.899.247.875.165 1.564.368 2.067.611 0 .295-.022.637-.065 1.027a39.367 39.367 0 0 1-.351 2.418c-.07.39-.139.732-.208 1.027h-.676l-1.04-3.562c-.312-.139-.706-.243-1.183-.312-.477-.07-.984-.104-1.521-.104-.884 0-1.595.247-2.132.741-.537.494-.806 1.183-.806 2.067 0 .71.212 1.309.637 1.794.425.485.958.919 1.599 1.3s1.33.75 2.067 1.105c.737.355 1.426.767 2.067 1.235a6.476 6.476 0 0 1 1.599 1.664c.425.641.637 1.439.637 2.392 0 .78-.143 1.49-.429 2.132a4.506 4.506 0 0 1-1.235 1.638c-.537.45-1.196.797-1.976 1.04s-1.664.364-2.652.364c-1.092 0-2.071-.13-2.938-.39s-1.482-.537-1.846-.832a24.3 24.3 0 0 1 .091-1.066 45.307 45.307 0 0 1 .351-2.574c.07-.416.139-.771.208-1.066h.676l1.066 3.822zM161.05 39.2h-5.772v-.65a9.393 9.393 0 0 1 1.716-.624V22.508l-1.716-.208v-.676a10.979 10.979 0 0 1 1.703-.585 18.61 18.61 0 0 1 1.703-.351h.65V23.6h.026c.347-.884.832-1.59 1.456-2.119.624-.529 1.439-.793 2.444-.793 1.543 0 2.739.511 3.588 1.534.85 1.023 1.274 2.687 1.274 4.992 0 1.092-.143 2.08-.429 2.964-.286.884-.693 1.63-1.222 2.236a5.366 5.366 0 0 1-1.924 1.404c-.754.33-1.59.494-2.509.494-.641 0-1.144-.039-1.508-.117a6.267 6.267 0 0 1-1.196-.403v4.134a4.132 4.132 0 0 1 1.716.624v.65zm1.378-16.9c-.85 0-1.525.269-2.028.806-.503.537-.858 1.274-1.066 2.21v7.28c.312.19.663.334 1.053.429.39.095.897.143 1.521.143.572 0 1.088-.147 1.547-.442.46-.295.85-.71 1.17-1.248.32-.537.568-1.166.741-1.885.173-.72.26-1.512.26-2.379 0-.71-.056-1.365-.169-1.963a5.015 5.015 0 0 0-.546-1.56 2.747 2.747 0 0 0-.988-1.027c-.407-.243-.906-.364-1.495-.364zm7.826 5.2c0-1.092.143-2.058.429-2.899.286-.84.698-1.551 1.235-2.132a5.295 5.295 0 0 1 1.937-1.326c.754-.303 1.59-.455 2.509-.455 1.075 0 2.002.165 2.782.494.78.33 1.417.793 1.911 1.391s.858 1.313 1.092 2.145c.234.832.351 1.76.351 2.782 0 2.184-.555 3.865-1.664 5.044-1.11 1.179-2.6 1.768-4.472 1.768-1.04 0-1.941-.16-2.704-.481a4.931 4.931 0 0 1-1.898-1.378c-.503-.598-.88-1.317-1.131-2.158-.251-.84-.377-1.772-.377-2.795zm2.496 0c0 .78.074 1.517.221 2.21.147.693.381 1.296.702 1.807.32.511.741.914 1.261 1.209.52.295 1.144.442 1.872.442.936 0 1.703-.46 2.301-1.378.598-.919.897-2.349.897-4.29 0-.797-.074-1.538-.221-2.223-.147-.685-.377-1.283-.689-1.794a3.549 3.549 0 0 0-1.196-1.209c-.485-.295-1.066-.442-1.742-.442-1.023 0-1.846.46-2.47 1.378-.624.919-.936 2.349-.936 4.29zm11.206-5.876a6.844 6.844 0 0 1 2.08-.884v-2.21c.225-.173.49-.342.793-.507.303-.165.602-.308.897-.429h.65V21h3.9v1.3h-3.9v7.54c0 1.04.165 1.777.494 2.21.33.433.823.65 1.482.65.312 0 .702-.022 1.17-.065a4.754 4.754 0 0 0 1.196-.247l.182.39c-.139.156-.334.32-.585.494a6.585 6.585 0 0 1-.858.494c-.32.156-.672.286-1.053.39a4.427 4.427 0 0 1-1.17.156c-1.04 0-1.833-.295-2.379-.884-.546-.59-.819-1.543-.819-2.86V22.3h-2.08v-.676zM200.05 34h-5.772v-.65a8.55 8.55 0 0 1 1.716-.624V16.268l-1.976-.208v-.676c.45-.208 1.014-.39 1.69-.546a30.522 30.522 0 0 1 1.976-.39h.65v18.278a8.55 8.55 0 0 1 1.716.624V34zm7.826 0h-5.772v-.65a5.53 5.53 0 0 1 .806-.351c.277-.095.58-.186.91-.273V22.508l-1.716-.208v-.676c.503-.208 1.049-.39 1.638-.546.59-.156 1.179-.286 1.768-.39h.65v12.038c.347.087.659.178.936.273.277.095.537.212.78.351V34zm-4.55-17.42c0-.468.152-.84.455-1.118.303-.277.706-.416 1.209-.416.503 0 .901.139 1.196.416.295.277.442.65.442 1.118 0 .468-.147.836-.442 1.105-.295.269-.693.403-1.196.403s-.906-.134-1.209-.403c-.303-.269-.455-.637-.455-1.105zm11.96 4.108c.936 0 1.725.091 2.366.273.641.182 1.179.464 1.612.845a10.98 10.98 0 0 1 3.198-1.508c.139.19.238.425.299.702.06.277.091.537.091.78l-.338.624h-2.73c.433.624.65 1.447.65 2.47 0 1.248-.438 2.262-1.313 3.042-.875.78-2.154 1.17-3.835 1.17-.33 0-.598-.009-.806-.026a14.435 14.435 0 0 1-.702-.078c-.087.156-.186.33-.299.52-.113.19-.169.39-.169.598 0 .347.2.62.598.819.399.2.897.377 1.495.533.598.156 1.248.316 1.95.481.702.165 1.356.39 1.963.676a4.655 4.655 0 0 1 1.521 1.118c.407.46.62 1.053.637 1.781a3.038 3.038 0 0 1-.429 1.69 3.812 3.812 0 0 1-1.261 1.261c-.537.338-1.183.598-1.937.78a10.58 10.58 0 0 1-2.483.273c-1.89 0-3.315-.32-4.277-.962-.962-.641-1.443-1.447-1.443-2.418 0-.468.074-.875.221-1.222.147-.347.36-.65.637-.91s.624-.49 1.04-.689c.416-.2.893-.386 1.43-.559a2.618 2.618 0 0 1-.949-.715c-.251-.303-.377-.672-.377-1.105 0-.399.169-.793.507-1.183.338-.39.68-.698 1.027-.923-.988-.26-1.746-.754-2.275-1.482a4.1 4.1 0 0 1-.793-2.47c0-.59.113-1.14.338-1.651a3.82 3.82 0 0 1 .988-1.339c.433-.381.97-.676 1.612-.884.641-.208 1.387-.312 2.236-.312zm3.848 15.418c0-.555-.186-.997-.559-1.326-.373-.33-.836-.598-1.391-.806a12.828 12.828 0 0 0-1.794-.52 20.666 20.666 0 0 1-1.794-.468c-.659.399-1.092.819-1.3 1.261a3.172 3.172 0 0 0-.312 1.365c0 .919.33 1.608.988 2.067.659.46 1.612.689 2.86.689.641 0 1.174-.06 1.599-.182.425-.121.763-.282 1.014-.481.251-.2.429-.438.533-.715.104-.277.156-.572.156-.884zm-6.682-11.232c0 .416.048.81.143 1.183.095.373.251.698.468.975.217.277.507.498.871.663.364.165.815.247 1.352.247 1.005 0 1.725-.295 2.158-.884.433-.59.65-1.317.65-2.184 0-.936-.212-1.677-.637-2.223-.425-.546-1.148-.819-2.171-.819-1.057 0-1.794.264-2.21.793-.416.529-.624 1.278-.624 2.249zM237.36 34h-5.616v-.65c.416-.225.936-.433 1.56-.624v-6.084c0-1.352-.19-2.414-.572-3.185-.381-.771-1.075-1.157-2.08-1.157-.45 0-.858.082-1.222.247a3.936 3.936 0 0 0-1.742 1.534 4.21 4.21 0 0 0-.468 1.053v7.592c.277.07.542.147.793.234.251.087.498.217.741.39V34h-5.59v-.65a7.244 7.244 0 0 1 1.716-.624V16.268l-1.976-.208v-.676c.503-.208 1.088-.39 1.755-.546a32.648 32.648 0 0 1 1.911-.39h.65v9.178h.026a5.713 5.713 0 0 1 1.573-2.08c.685-.572 1.512-.858 2.483-.858.693 0 1.313.082 1.859.247a2.88 2.88 0 0 1 1.365.871c.364.416.641.975.832 1.677.19.702.286 1.59.286 2.665v6.578c.295.07.59.147.884.234.295.087.572.217.832.39V34zm.832-12.376a6.844 6.844 0 0 1 2.08-.884v-2.21c.225-.173.49-.342.793-.507.303-.165.602-.308.897-.429h.65V21h3.9v1.3h-3.9v7.54c0 1.04.165 1.777.494 2.21.33.433.823.65 1.482.65.312 0 .702-.022 1.17-.065a4.754 4.754 0 0 0 1.196-.247l.182.39c-.139.156-.334.32-.585.494a6.585 6.585 0 0 1-.858.494c-.32.156-.672.286-1.053.39a4.427 4.427 0 0 1-1.17.156c-1.04 0-1.833-.295-2.379-.884-.546-.59-.819-1.543-.819-2.86V22.3h-2.08v-.676z"/>
        <g>
            <mask id="b" fill="#fff">
                <use xlink:href="#a"/>
            </mask>
            <use fill="#39BDDC" xlink:href="#a"/>
            <path stroke="#FFF" stroke-width="4.977" d="M22.993 32.165c1.813 2.483 4.787 4.102 8.15 4.102 5.523 0 10-4.368 10-9.758 0-5.388-4.477-9.757-10-9.757s-10 4.369-10 9.757" mask="url(#b)" transform="rotate(-5 31.143 26.51)"/>
            <path stroke="#FFF" stroke-width="4.977" d="M32.694 4.592c1.898 4.146-.008 9.009-4.257 10.86-4.25 1.853-9.233-.007-11.13-4.153-1.899-4.146.007-9.009 4.256-10.86 4.25-1.853 9.233.007 11.13 4.153z" mask="url(#b)"/>
            <path fill="#FFF" d="M28.837 1.264l.777 1.752c2.79-.898 2.135.523 4.145 1.166l11.364-5.32-1.538-3.601-14.748 6.003z" mask="url(#b)"/>
        </g>
    </g>
</svg>
