<?xml version="1.0" encoding="UTF-8"?>
<svg width="22px" height="15px" viewBox="0 0 22 15" version="1.1" xmlns="http://www.w3.org/2000/svg" xmlns:xlink="http://www.w3.org/1999/xlink">
    <!-- Generator: sketchtool 42 (36781) - http://www.bohemiancoding.com/sketch -->
    <title>2E49DADF-E0E7-4284-B70B-14834B10F3FD</title>
    <desc>Created with sketchtool.</desc>
    <defs></defs>
    <g id="Desktop" stroke="none" stroke-width="1" fill="none" fill-rule="evenodd">
        <g id="Desktop---Article-page" transform="translate(-548.000000, -1194.000000)" fill="#FFFFFF">
            <path d="M548.084,1207.818 L555.182,1200.993 L548.063,1194.903 L548,1195.302 L548,1207.398 C548,1207.482 548.028,1207.622 548.084,1207.818 L548.084,1207.818 Z M556.085,1200.174 L557.03,1200.93 L558.899,1202.463 L560.768,1200.93 L561.713,1200.174 L568.853,1194.063 C568.727,1194.021 568.601,1194 568.475,1194 L549.302,1194 C549.162,1194 549.043,1194.021 548.945,1194.063 L556.085,1200.174 Z M549.302,1208.7 L568.475,1208.7 C568.601,1208.7 568.72,1208.679 568.832,1208.637 L561.671,1201.77 L558.899,1204.017 L556.127,1201.77 L548.966,1208.637 C549.078,1208.679 549.19,1208.7 549.302,1208.7 L549.302,1208.7 Z M569.714,1207.818 C569.756,1207.664 569.777,1207.524 569.777,1207.398 L569.777,1195.302 C569.777,1195.162 569.756,1195.029 569.714,1194.903 L562.616,1200.993 L569.714,1207.818 Z" id="Fill-6"></path>
        </g>
    </g>
</svg>