<?xml version="1.0" encoding="UTF-8" standalone="no"?>
<!-- Generator: Adobe Illustrator 16.0.0, SVG Export Plug-In . SVG Version: 6.00 Build 0)  -->

<svg
   xmlns:dc="http://purl.org/dc/elements/1.1/"
   xmlns:cc="http://creativecommons.org/ns#"
   xmlns:rdf="http://www.w3.org/1999/02/22-rdf-syntax-ns#"
   xmlns:svg="http://www.w3.org/2000/svg"
   xmlns="http://www.w3.org/2000/svg"
   xmlns:sodipodi="http://sodipodi.sourceforge.net/DTD/sodipodi-0.dtd"
   xmlns:inkscape="http://www.inkscape.org/namespaces/inkscape"
   version="1.1"
   id="Layer_1"
   x="0px"
   y="0px"
   width="23px"
   height="12px"
   viewBox="0 0 23 12"
   enable-background="new 0 0 23 12"
   xml:space="preserve"
   inkscape:version="0.91 r13725"
   sodipodi:docname="mobile-menu_white.svg"><metadata
     id="metadata23"><rdf:RDF><cc:Work
         rdf:about=""><dc:format>image/svg+xml</dc:format><dc:type
           rdf:resource="http://purl.org/dc/dcmitype/StillImage" /><dc:title></dc:title></cc:Work></rdf:RDF></metadata><defs
     id="defs21" /><sodipodi:namedview
     pagecolor="#ffffff"
     bordercolor="#666666"
     borderopacity="1"
     objecttolerance="10"
     gridtolerance="10"
     guidetolerance="10"
     inkscape:pageopacity="0"
     inkscape:pageshadow="2"
     inkscape:window-width="1178"
     inkscape:window-height="1026"
     id="namedview19"
     showgrid="false"
     inkscape:zoom="11.913043"
     inkscape:cx="11.5"
     inkscape:cy="6"
     inkscape:window-x="1440"
     inkscape:window-y="0"
     inkscape:window-maximized="0"
     inkscape:current-layer="Layer_1" /><line
     fill="none"
     stroke="#000000"
     stroke-width="2"
     stroke-miterlimit="10"
     x1="0"
     y1="6"
     x2="23"
     y2="6"
     id="line13" /><line
     fill="none"
     stroke="#000000"
     stroke-width="2"
     stroke-miterlimit="10"
     x1="0"
     y1="1"
     x2="23"
     y2="1"
     id="line15" /><line
     fill="none"
     stroke="#000000"
     stroke-width="2"
     stroke-miterlimit="10"
     x1="0"
     y1="11"
     x2="23"
     y2="11"
     id="line17"
     style="fill:#ffffff" /><path
     style="fill:#ffffff"
     d="m 0.06715328,10.994526 0,-0.965329 11.45802872,0 11.45803,0 0,0.965329 0,0.965328 -11.45803,0 -11.45802872,0 0,-0.965328 z"
     id="path3351"
     inkscape:connector-curvature="0" /><path
     style="fill:#ffffff"
     d="m 0.06715328,6 0,-0.9233577 11.45802872,0 11.45803,0 0,0.9233577 0,0.9233577 -11.45803,0 -11.45802872,0 0,-0.9233577 z"
     id="path3353"
     inkscape:connector-curvature="0" /><path
     style="fill:#ffffff"
     d="m 0.06715328,1.0054745 0,-0.96532851 11.45802872,0 11.45803,0 0,0.96532851 0,0.9653284 -11.45803,0 -11.45802872,0 0,-0.9653284 z"
     id="path3355"
     inkscape:connector-curvature="0" /></svg>