<?xml version="1.0" encoding="utf-8"?>
<!-- Generator: Adobe Illustrator 16.0.0, SVG Export Plug-In . SVG Version: 6.00 Build 0)  -->
<!DOCTYPE svg PUBLIC "-//W3C//DTD SVG 1.1//EN" "http://www.w3.org/Graphics/SVG/1.1/DTD/svg11.dtd">
<svg version="1.1" id="Layer_1" xmlns="http://www.w3.org/2000/svg" xmlns:xlink="http://www.w3.org/1999/xlink" x="0px" y="0px"
	 width="23px" height="12px" viewBox="0 0 23 12" enable-background="new 0 0 23 12" xml:space="preserve">
<g>
	<path fill="#F73D30" d="M-34.934,8.017l-1.681-3.179c-0.504-0.953-0.617-1.457-0.617-1.457h-0.056c0,0,0.07,0.519,0.07,1.513v5.183
		h-1.093v-8.25h1.359l2.087,4.16c0.28,0.561,0.364,0.925,0.364,0.925h0.056c0,0,0.084-0.364,0.364-0.925l2.087-4.16h1.274v8.25
		h-1.093V4.894c0-0.995,0.07-1.513,0.07-1.513h-0.056c0,0-0.112,0.504-0.616,1.457l-1.681,3.179H-34.934z"/>
	<path fill="#F73D30" d="M-23.411,10.076h-4.931v-8.25h4.931v0.953h-3.838v2.703h3.404v0.953h-3.404v2.69h3.838V10.076z"/>
	<path fill="#F73D30" d="M-17,6.798c0.504,0.756,1.009,1.709,1.009,1.709h0.056c0,0-0.07-0.939-0.07-1.976V1.826h1.092v8.25h-1.134
		l-3.404-4.973c-0.518-0.756-1.008-1.709-1.008-1.709h-0.056c0,0,0.084,0.938,0.084,1.975v4.707h-1.093v-8.25h1.163L-17,6.798z"/>
	<path fill="#F73D30" d="M-6.61,1.826v5.561c0,2.129-1.569,2.857-3.11,2.857c-1.54,0-3.096-0.729-3.096-2.857V1.826h1.093v5.295
		c0,1.597,0.813,2.227,2.003,2.227c1.205,0,2.018-0.63,2.018-2.186V1.826H-6.61z"/>
</g>
<line fill="none" stroke="#000000" stroke-width="2" stroke-miterlimit="10" x1="0" y1="6" x2="23" y2="6"/>
<line fill="none" stroke="#000000" stroke-width="2" stroke-miterlimit="10" x1="0" y1="1" x2="23" y2="1"/>
<line fill="none" stroke="#000000" stroke-width="2" stroke-miterlimit="10" x1="0" y1="11" x2="23" y2="11"/>
</svg>
