<svg xmlns="http://www.w3.org/2000/svg" width="24" height="18" viewBox="0 0 24 18">
    <path fill="#39BDDC" fill-rule="evenodd" d="M23.838 3.764c-1.612.413-2.842 1.023-3.689 1.829s-1.23 1.767-1.147 2.883a5.866 5.866 0 0 0 2.015 1.581c.806.393 1.664.734 2.573 1.023.207.744.238 1.498.093 2.263a5.859 5.859 0 0 1-.837 2.108 6.981 6.981 0 0 1-1.457 1.643c-.558.455-1.126.723-1.705.806a8.326 8.326 0 0 1-2.542-.527 6.476 6.476 0 0 1-2.17-1.333 7.005 7.005 0 0 1-1.519-2.077c-.393-.806-.589-1.726-.589-2.759 0-1.24.248-2.428.744-3.565a10.198 10.198 0 0 1 2.077-3.069c.889-.91 1.953-1.684 3.193-2.325 1.24-.64 2.604-1.085 4.092-1.333l.868 2.852zm-12.71 0c-1.612.413-2.842 1.023-3.689 1.829S6.209 7.36 6.292 8.476a5.866 5.866 0 0 0 2.015 1.581c.806.393 1.664.734 2.573 1.023.207.744.238 1.498.093 2.263a5.859 5.859 0 0 1-.837 2.108 6.981 6.981 0 0 1-1.457 1.643c-.558.455-1.126.723-1.705.806a8.326 8.326 0 0 1-2.542-.527 6.476 6.476 0 0 1-2.17-1.333 7.005 7.005 0 0 1-1.519-2.077c-.393-.806-.589-1.726-.589-2.759 0-1.24.248-2.428.744-3.565A10.198 10.198 0 0 1 2.975 4.57c.889-.91 1.953-1.684 3.193-2.325 1.24-.64 2.604-1.085 4.092-1.333l.868 2.852z"/>
</svg>
