<svg width="23" height="19" viewBox="0 0 23 19" xmlns="http://www.w3.org/2000/svg"><title>F2B0974A-FF30-49F5-8821-75804C42997F</title><path d="M22.963 2.194a9.85 9.85 0 0 1-2.717.731A4.61 4.61 0 0 0 22.31.339a9.114 9.114 0 0 1-2.978 1.15C18.391.496 17.242 0 15.883 0c-1.306 0-2.421.461-3.344 1.384-.923.923-1.384 2.038-1.384 3.344 0 .349.034.705.104 1.071a13.09 13.09 0 0 1-5.408-1.463A13.602 13.602 0 0 1 1.567.862a4.521 4.521 0 0 0-.653 2.351c0 .836.191 1.593.575 2.273A4.89 4.89 0 0 0 3.03 7.158a4.778 4.778 0 0 1-2.116-.601c-.018 1.201.34 2.203 1.071 3.056.732.854 1.637 1.394 2.717 1.62-.401.105-.81.157-1.228.157-.279 0-.575-.026-.888-.079a4.75 4.75 0 0 0 1.672 2.326 4.542 4.542 0 0 0 2.743.94c-1.707 1.341-3.657 2.012-5.852 2.012-.418 0-.801-.018-1.149-.053 2.194 1.411 4.606 2.116 7.236 2.116 1.672.018 3.24-.243 4.702-.783 1.463-.54 2.717-1.245 3.762-2.116a13.313 13.313 0 0 0 2.691-3.057 13.93 13.93 0 0 0 1.672-3.631 13.46 13.46 0 0 0 .549-3.788c0-.262-.009-.462-.026-.601a9.47 9.47 0 0 0 2.351-2.43l.026-.052z" fill="#000" fill-rule="evenodd"/></svg>