<svg xmlns="http://www.w3.org/2000/svg" width="20" height="16" viewBox="0 0 20 16">
    <path fill="#FFF" fill-rule="evenodd" d="M17.367 2.509a3.954 3.954 0 0 0 1.77-2.218 7.817 7.817 0 0 1-2.554.986C15.775.425 14.79 0 13.624 0c-1.12 0-2.077.395-2.868 1.187-.792.792-1.187 1.748-1.187 2.869 0 .299.029.604.089.918a11.229 11.229 0 0 1-4.64-1.255A11.667 11.667 0 0 1 1.345.74c-.373.627-.56 1.3-.56 2.017 0 .717.164 1.366.493 1.95.329.582.77 1.06 1.322 1.434a4.098 4.098 0 0 1-1.815-.516c-.015 1.03.292 1.89.919 2.622a4.102 4.102 0 0 0 2.33 1.39 4.14 4.14 0 0 1-1.053.134c-.24 0-.493-.022-.762-.068a4.075 4.075 0 0 0 1.434 1.996 3.896 3.896 0 0 0 2.353.806c-1.464 1.15-3.137 1.726-5.02 1.726-.358 0-.686-.016-.985-.046C1.882 15.394 3.95 16 6.207 16c1.434.016 2.78-.208 4.033-.671 1.255-.464 2.33-1.068 3.227-1.815a11.42 11.42 0 0 0 2.308-2.623 11.949 11.949 0 0 0 1.435-3.114c.314-1.076.47-2.16.47-3.25 0-.224-.007-.396-.022-.515a8.124 8.124 0 0 0 2.017-2.084s-1.532.493-2.308.582z"/>
</svg>
