<svg xmlns="http://www.w3.org/2000/svg" width="18" height="16" viewBox="0 0 18 16">
    <path fill="#FFF" fill-rule="evenodd" d="M16.623.421c-1.044-.61-2.252-.557-3.626.16-1.559.823-2.483 2.071-2.774 3.745 1.004-.61 1.744-.598 2.22.04.474.637.435 1.46-.12 2.47-1.136 2.203-1.968 3.306-2.496 3.306-.132 0-.251-.073-.357-.22-.105-.146-.224-.405-.356-.776-.133-.372-.245-.73-.337-1.076L8.36 6.476c-.079-.318-.164-.763-.256-1.334l-.238-1.494c-.067-.425-.166-.89-.298-1.394-.132-.505-.284-.903-.456-1.195A1.895 1.895 0 0 0 6.4.362c-.304-.173-.653-.22-1.05-.14C4.662.355 3.843.8 2.892 1.557c-.95.756-1.611 1.348-1.98 1.772L0 4.365l.713.996.397-.279a3.76 3.76 0 0 1 .871-.418c.29-.093.541-.06.753.1.158.212.647 1.693 1.466 4.441.819 2.75 1.334 4.343 1.546 4.781.211.438.495.837.852 1.195.356.359.792.61 1.307.757.515.146 1.05.033 1.605-.339 1.4-.955 3.018-2.529 4.854-4.72 1.835-2.192 2.965-4.522 3.388-6.991.29-1.7-.086-2.856-1.13-3.467"/>
</svg>
