<?xml version="1.0" encoding="utf-8"?>
<!-- Generator: Adobe Illustrator 21.0.2, SVG Export Plug-In . SVG Version: 6.00 Build 0)  -->
<!DOCTYPE svg PUBLIC "-//W3C//DTD SVG 1.1//EN" "http://www.w3.org/Graphics/SVG/1.1/DTD/svg11.dtd">
<svg version="1.1" id="Layer_1" xmlns="http://www.w3.org/2000/svg" xmlns:xlink="http://www.w3.org/1999/xlink" x="0px" y="0px"
	 viewBox="0 0 1242 538.6" style="enable-background:new 0 0 1242 538.6;" xml:space="preserve">
<style type="text/css">
	.st0{fill:#FFFFFF;}
</style>
<g>
	<path class="st0" d="M328,467.2h-8.1l-10.6-29.4c-1-2.8-2.1-6-3.1-9.4H306c-0.9,3.3-2,6.5-3.1,9.3l-10.8,29.4h-7.9l-22.4-63.4h11.1
		l12.9,39.3c1.1,3.2,1.9,6.1,2.8,9.2h0.2c0.8-3,1.9-5.9,3-9.1l9.8-27.5l-4.3-11.9h10.2l13.4,38.6c1.1,3.6,2.4,6.5,3.2,9.6h0.3
		c0.7-3.1,1.4-5.9,2.5-9.3l12.3-38.9h10.3L328,467.2z"/>
	<path class="st0" d="M362,444.2c0,9.4,4.5,15.7,11.9,15.7c7.7,0,11.8-6.5,11.8-15.7c0-9.5-4.4-15.7-12-15.7
		C366,428.5,362,434.9,362,444.2 M389.7,426.9c4,4.1,6.2,10.2,6.2,17.2c0,7.1-2.3,13.3-6.4,17.5c-3.9,3.9-9.3,6.2-15.7,6.2
		c-6.2,0-11.4-1.9-15.1-5.5c-4.4-4.2-6.8-10.6-6.8-17.9c0-7.2,2.4-13.4,6.5-17.6c3.8-4,9.2-6.3,15.4-6.3
		C380.4,420.5,385.8,422.8,389.7,426.9"/>
	<path class="st0" d="M427.1,431c-1.6-0.9-3.4-1.2-5.1-1.2c-2.7,0-6.1,1.7-9.1,4.5v32.6h-10v-45.2h8.3l1.2,5
		c5.1-4.7,8.6-6.1,12.6-6.1c2.1,0,4.3,0.8,5.7,1.7L427.1,431z"/>
	<path class="st0" d="M443.7,467.8c-6.8,0-9.5-4.1-9.5-9.5v-59.2h9.9V454c0,3.6,0.8,4.8,3.2,4.8c0.7,0,1.6,0,3-0.4l1.2,7.4
		C448.8,467.3,446.3,467.8,443.7,467.8"/>
	<path class="st0" d="M485.3,429.4c-1.6-0.5-3.1-0.8-5.9-0.8c-8.4,0-14.9,5.8-14.9,15.4c0,8.9,5.5,15.4,15.3,15.4
		c2,0,4.2-0.4,5.5-0.9V429.4z M478.7,467.8c-13.3,0-24.2-7.7-24.2-23.1c0-14.1,10.4-24.2,24.5-24.2c2.7,0,4.6,0.3,6.3,0.6v-21.9h10
		v65.1C491.5,466.3,485.9,467.8,478.7,467.8"/>
	<path class="st0" d="M533.6,444.2c0,9.4,4.5,15.7,11.9,15.7c7.6,0,11.8-6.5,11.8-15.7c0-9.5-4.4-15.7-12-15.7
		C537.6,428.5,533.6,434.9,533.6,444.2 M561.2,426.9c4,4.1,6.2,10.2,6.2,17.2c0,7.1-2.3,13.3-6.4,17.5c-3.9,3.9-9.3,6.2-15.7,6.2
		c-6.2,0-11.4-1.9-15.1-5.5c-4.4-4.2-6.8-10.6-6.8-17.9c0-7.2,2.4-13.4,6.5-17.6c3.8-4,9.2-6.3,15.4-6.3
		C551.9,420.5,557.4,422.8,561.2,426.9"/>
	<path class="st0" d="M599.3,408.5c-1.7-0.8-3.7-1.3-5.7-1.3c-3.7,0-5.5,2.5-5.5,6.7v7.7h11.9l-2.8,7.8H588v37.4H578v-37.4h-6.3
		v-7.8h6.3v-6.9c0-12.8,8.9-15.6,15-15.6c2.3,0,5.5,0.5,8.1,1.9L599.3,408.5z"/>
	<path class="st0" d="M645.4,439h-8.5v19.2h8c8.1,0,12.2-4,12.2-10C657.2,442.9,652.8,439,645.4,439 M636.9,412.5v17.9h7.2
		c4.7,0,9.3-3.4,9.3-9.2c0-5.3-3.2-8.7-10-8.7H636.9z M645.4,466.9h-18.6v-63H646c12,0,17.6,8,17.6,15.5c0,5.8-2.8,11-8,13.4v0.1
		c6.6,1.4,12,7.5,12,15.3C667.6,456.9,661.6,466.9,645.4,466.9"/>
	<path class="st0" d="M705.6,466.8l-1.8-4.5c-3.3,2.8-8.2,5.4-14.2,5.4c-6,0-14.8-3.1-14.8-17v-29.2h9.9v28.5c0,6.3,2.9,9.6,8.4,9.6
		c4.3,0,7.8-2.5,9.8-4.5v-33.6h10v30.5c0,9.5,0.2,12.6,0.9,14.7H705.6z"/>
	<path class="st0" d="M734.8,467.8c-7.2,0-12.1-1.7-15.7-4l3.4-7.4c3,2,7.2,3.7,11.9,3.7c5,0,8.3-2,8.3-5.5
		c0-9.1-20.8-5.6-20.8-21.3c0-7.4,5.7-12.9,16.4-12.9c5.4,0,9.3,1,12.6,2.4v8.4c-3.5-1.5-7.4-2.9-12.2-2.9c-4.1,0-7.1,1.3-7.1,4.5
		c0,8.1,21.1,5.7,21.1,21.1C752.6,463.9,744.2,467.8,734.8,467.8"/>
	<path class="st0" d="M760.9,421.6h10v45.3h-10V421.6z M772.2,407.6c0,3.3-2.8,6.2-6.3,6.2c-3.6,0-6.4-2.8-6.4-6.2
		c0-3.4,2.8-6.2,6.4-6.2C769.4,401.3,772.2,404,772.2,407.6"/>
	<path class="st0" d="M811,466.8v-27.1c0-4.9-1-10.4-7.1-10.4c-4.5,0-8.8,2.7-12.4,5.5v32h-9.9v-45.2h8.3l1.1,5.1
		c5.1-3.8,9.9-6.2,16.1-6.2c6.7,0,13.8,4.4,13.8,16.2v30.2H811z"/>
	<path class="st0" d="M847.5,428.2c-5.9,0-9.5,5.4-9.5,11h18.8C856.8,434,853.8,428.2,847.5,428.2 M838.1,446.6
		c0.1,7.5,5.5,13,13.6,13c4,0,7.8-1.1,11.4-3.2l2.6,6.5c-4.5,3.3-10.5,4.9-15.8,4.9c-15.2,0-22-11.6-22-23.9
		c0-12.9,7.6-23.4,19.8-23.4c12.1,0,19.5,9.3,19.5,23.3v2.8H838.1z"/>
	<path class="st0" d="M886.2,467.8c-7.2,0-12.1-1.7-15.7-4l3.3-7.4c3,2,7.2,3.7,11.9,3.7c5,0,8.3-2,8.3-5.5
		c0-9.1-20.8-5.6-20.8-21.3c0-7.4,5.7-12.9,16.4-12.9c5.5,0,9.3,1,12.6,2.4v8.4c-3.5-1.5-7.4-2.9-12.2-2.9c-4.1,0-7.1,1.3-7.1,4.5
		c0,8.1,21.1,5.7,21.1,21.1C904.1,463.9,895.7,467.8,886.2,467.8"/>
	<path class="st0" d="M922.8,467.8c-7.2,0-12.1-1.7-15.7-4l3.3-7.4c3,2,7.2,3.7,11.9,3.7c5,0,8.3-2,8.3-5.5
		c0-9.1-20.7-5.6-20.7-21.3c0-7.4,5.7-12.9,16.3-12.9c5.4,0,9.3,1,12.6,2.4v8.4c-3.5-1.5-7.4-2.9-12.2-2.9c-4.1,0-7.1,1.3-7.1,4.5
		c0,8.1,21.1,5.7,21.1,21.1C940.7,463.9,932.3,467.8,922.8,467.8"/>
	<rect x="970.3" y="403.8" class="st0" width="10.1" height="63"/>
	<path class="st0" d="M1019.6,429.4c-1.6-0.5-3.1-0.8-5.9-0.8c-8.4,0-14.9,5.8-14.9,15.4c0,8.9,5.4,15.4,15.3,15.4
		c2,0,4.2-0.4,5.5-0.9V429.4z M1013,467.8c-13.3,0-24.2-7.7-24.2-23.1c0-14.1,10.4-24.2,24.5-24.2c2.7,0,4.6,0.3,6.3,0.6v-21.9h9.9
		v65.1C1025.8,466.3,1020.2,467.8,1013,467.8"/>
	<path class="st0" d="M1056.1,428.2c-5.9,0-9.5,5.4-9.5,11h18.9C1065.4,434,1062.4,428.2,1056.1,428.2 M1046.8,446.6
		c0.1,7.5,5.5,13,13.6,13c4,0,7.8-1.1,11.4-3.2l2.6,6.5c-4.5,3.3-10.5,4.9-15.8,4.9c-15.2,0-22-11.6-22-23.9
		c0-12.9,7.5-23.4,19.8-23.4c12,0,19.5,9.3,19.5,23.3v2.8H1046.8z"/>
	<path class="st0" d="M1108,445.7l-7.4,0.3c-6.8,0.2-9.7,2.6-9.7,6.8c0,4,2.7,7,7.8,7c4.7,0,7.7-2.1,9.3-3.6V445.7z M1110.6,466.8
		l-1.9-4.2c-2.9,2.7-7.1,5.2-13.4,5.2c-7.9,0-14.5-5.4-14.5-14.2c0-9.3,7-14.4,18.8-14.9l8.4-0.3V437c0-6.3-4-8.6-9.1-8.6
		c-5.2,0-9,1.8-11.8,3.6l-3.3-6.4c5.8-4,11.2-5.1,17.1-5.1c10.3,0,17.1,4.3,17.1,16.1v16.5c0,8.6,0.2,12,0.9,13.8H1110.6z"/>
	<path class="st0" d="M1139.1,467.8c-7.2,0-12.1-1.7-15.7-4l3.3-7.4c2.9,2,7.2,3.7,11.8,3.7c5,0,8.3-2,8.3-5.5
		c0-9.1-20.7-5.6-20.7-21.3c0-7.4,5.7-12.9,16.3-12.9c5.4,0,9.3,1,12.6,2.4v8.4c-3.6-1.5-7.4-2.9-12.2-2.9c-4.1,0-7.1,1.3-7.1,4.5
		c0,8.1,21.2,5.7,21.2,21.1C1157,463.9,1148.6,467.8,1139.1,467.8"/>
	<polygon class="st0" points="467.7,336.5 387.6,336.5 358.8,179.4 358,179.4 330,336.5 249.5,336.5 176.8,78.6 252.1,78.6 
		290.3,237.9 291,237.9 323.2,78.6 395.9,78.6 427.3,240 428,240 468.5,78.6 542.6,78.6 	"/>
	<path class="st0" d="M910.8,275.5h45.3c16.1,0,30.2-4.7,30.2-24.6c0-15.2-8.8-23.5-27-23.5h-48.4V275.5z M910.8,179.4h40.7
		c16.1,0,26.3-4.7,26.3-21.3c0-13-10.5-17.7-26.3-17.7h-40.7V179.4z M833.6,79h137.3c66,0,80,38.3,80,64.7c0,26-12.3,40.1-30.9,50.6
		c22.5,8,43.5,26.4,43.5,64.3c0,51.7-43.5,78.4-87.8,78.4H833.6V79z"/>
	<rect x="1086.3" y="79" class="st0" width="71.9" height="257.9"/>
	<path class="st0" d="M668.3,273.4c-35.2,0-63.9-28.6-63.9-63.8c0-35.2,28.6-63.8,63.9-63.8c35.2,0,63.8,28.7,63.8,63.8
		C732.1,244.8,703.5,273.4,668.3,273.4 M668.3,78.8c-72,0-130.5,58.4-130.5,130.4c0,72.1,58.4,130.5,130.5,130.5
		c72,0,130.5-58.4,130.5-130.5V78.8H668.3z"/>
</g>
</svg>
